<?xml version="1.0" encoding="utf-8" ?>
<svg baseProfile="full" height="1000px" version="1.1" width="1000px" xmlns="http://www.w3.org/2000/svg" xmlnsEv="http://www.w3.org/2001/xml-events" xmlnsXlink="http://www.w3.org/1999/xlink"><defs><clipPath id="border_clip"><rect height="1000" width="1000" x="0" y="0" /></clipPath></defs><polyline clip-path="url(#border_clip)" fill="none" points="500.5,500.5 500.5,500.5 -9.5,-9.5" stroke="black" stroke-linecap="round" stroke-width="1" /><polygon clip-path="url(#border_clip)" fill="#e54813" fill-rule="evenodd" points="-9.5,-9.5 1000.5,-9.5 1000.5,1000.5 -9.499999999999943,1000.5000000000001 -9.500000000000114,-9.499999999999886" stroke-width="0" /><polyline clip-path="url(#border_clip)" fill="none" points="-9.5,-9.5 1000.5,-9.5 1000.5,1000.5 -9.499999999999943,1000.5000000000001 -9.500000000000114,-9.499999999999886" stroke="black" stroke-linecap="round" stroke-width="1" /><polygon clip-path="url(#border_clip)" fill="#189eb6" fill-rule="evenodd" points="923.6046558077255,586.8490600177595 877.3239479102947,642.0042599223259 852.6984975908465,574.3463912257405 923.6046558077255,586.8490600177594" stroke-width="0" /><polygon clip-path="url(#border_clip)" fill="#80295e" fill-rule="evenodd" points="592.7841575034956,795.2982963406673 687.8217831991235,866.9142840957609 578.2817056382833,913.4112883859847 592.7841575034955,795.2982963406673" stroke-width="0" /><polygon clip-path="url(#border_clip)" fill="#6fa504" fill-rule="evenodd" points="587.1477163841353,80.23311874326515 493.20497864434026,76.95256605323027 543.0173894822614,-2.7639549854739016 587.1477163841353,80.2331187432651" stroke-width="0" /><polygon clip-path="url(#border_clip)" fill="#8abd8d" fill-rule="evenodd" points="428.1660466067975,599.0184086688804 334.8080039570775,634.8552036234107 350.4514504611002,536.0863695638969 428.1660466067975,599.0184086688804" stroke-width="0" /><polygon clip-path="url(#border_clip)" fill="#785fd1" fill-rule="evenodd" points="538.8643815594427,425.823535802437 457.59706681645633,529.8409552785246 408.14899648555536,407.452686475709 538.8643815594426,425.82353580243694" stroke-width="0" /><polygon clip-path="url(#border_clip)" fill="#1626b5" fill-rule="evenodd" points="675.7293241320677,257.76809413167405 592.9874072143896,284.65257264229496 611.0757243155341,199.5537313784538 675.7293241320677,257.76809413167405" stroke-width="0" /><polygon clip-path="url(#border_clip)" fill="#9918cd" fill-rule="evenodd" points="464.97046575089956,782.6810583728172 449.87439552788186,772.8775557425467 465.91251296327243,764.7057267472348 464.97046575089956,782.6810583728172" stroke-width="0" /><polygon clip-path="url(#border_clip)" fill="#35aa8a" fill-rule="evenodd" points="924.0896465688758,568.672669183896 949.7895768635826,714.4242166297024 810.7150689872678,663.8052354175046 924.0896465688758,568.672669183896" stroke-width="0" /><polygon clip-path="url(#border_clip)" fill="#88a62c" fill-rule="evenodd" points="210.1421544801359,225.7277824696414 80.60610962302928,181.12494530901205 184.00132211354816,91.24485833731183 210.14215448013596,225.7277824696414" stroke-width="0" /><polygon clip-path="url(#border_clip)" fill="#fa8e52" fill-rule="evenodd" points="142.01003643006442,559.1567395938472 241.00498579618005,460.16179022772985 277.23965211053417,595.3914059081989 142.01003643006447,559.1567395938473" stroke-width="0" /><polygon clip-path="url(#border_clip)" fill="#9f3d9f" fill-rule="evenodd" points="36.6386467957181,833.9644831852005 -61.11414852386838,721.5127557320086 85.14830180983301,693.082215420902 36.63864679571816,833.9644831852005" stroke-width="0" /><polygon clip-path="url(#border_clip)" fill="#7ff19a" fill-rule="evenodd" points="336.7285179713207,854.0469667467237 287.0940717479544,901.978394308395 270.4014609515766,835.0279891953516 336.7285179713207,854.0469667467237" stroke-width="0" /><polygon clip-path="url(#border_clip)" fill="#1799af" fill-rule="evenodd" points="635.0350826400485,230.01152988919222 580.3327246515487,101.14085040585144 719.2891858813338,118.2025584825704 635.0350826400485,230.01152988919216" stroke-width="0" /><polyline clip-path="url(#border_clip)" fill="none" points="467.58168871475874,427.948433280337 182.63768776982766,226.92030024248618" stroke="#c66b13" stroke-linecap="round" stroke-width="3" /><polyline clip-path="url(#border_clip)" fill="none" points="13.282129133941396,220.86523007768426 268.77254598134033,541.9328975434655" stroke="#f025a0" stroke-linecap="round" stroke-width="9" /><polyline clip-path="url(#border_clip)" fill="none" points="791.4165536865294,510.71546796794036 429.3614601830152,452.10285843391875" stroke="#a3a768" stroke-linecap="round" stroke-width="3" /><polyline clip-path="url(#border_clip)" fill="none" points="852.1904544415954,282.2698893389005 225.1537925183988,396.4606904481101" stroke="#f04758" stroke-linecap="round" stroke-width="5" /><polyline clip-path="url(#border_clip)" fill="none" points="92.07122465752587,718.5122462961458 433.6670228949017,910.5698516150835" stroke="#560bcb" stroke-linecap="round" stroke-width="5" /><polyline clip-path="url(#border_clip)" fill="none" points="468.13531203675757,649.2219737453594 660.7829839945932,318.34914403855623" stroke="#78fbad" stroke-linecap="round" stroke-width="4" /><polyline clip-path="url(#border_clip)" fill="none" points="456.23419217561207,661.6228690102348 437.00087437546705,1.193382308102798" stroke="#1b7866" stroke-linecap="round" stroke-width="5" /><polyline clip-path="url(#border_clip)" fill="none" points="799.1979204758534,88.47066126104181 949.3069417059953,106.66690591284595" stroke="#e695f7" stroke-linecap="round" stroke-width="3" /><polyline clip-path="url(#border_clip)" fill="none" points="577.5425930653594,375.25839643774447 245.0176713148246,358.3637990278406" stroke="#b1bf68" stroke-linecap="round" stroke-width="10" /><polyline clip-path="url(#border_clip)" fill="none" points="789.2770095331167,852.3012203634717 448.4823336180142,353.9352984503898" stroke="#bf9eb1" stroke-linecap="round" stroke-width="2" /><polyline clip-path="url(#border_clip)" fill="none" points="78.1622385367969,483.6270286214525 55.04022918483605,993.4250164378515" stroke="#3a6cc6" stroke-linecap="round" stroke-width="9" /><polyline clip-path="url(#border_clip)" fill="none" points="407.31495100365737,440.93588236346585 186.6408983520032,874.670512635902" stroke="#2416cb" stroke-linecap="round" stroke-width="3" /><polyline clip-path="url(#border_clip)" fill="none" points="831.1049876754466,899.0018679580736 913.6888307202439,239.5558229687677" stroke="#4191be" stroke-linecap="round" stroke-width="7" /></svg>