<?xml version="1.0" encoding="utf-8" ?>
<svg baseProfile="full" height="1000px" version="1.1" width="1000px" xmlns="http://www.w3.org/2000/svg" xmlnsEv="http://www.w3.org/2001/xml-events" xmlnsXlink="http://www.w3.org/1999/xlink"><defs><clipPath id="border_clip"><rect height="1000" width="1000" x="0" y="0" /></clipPath></defs><polyline clip-path="url(#border_clip)" fill="none" points="500.5,500.5 500.5,500.5 -9.5,-9.5" stroke="black" stroke-linecap="round" stroke-width="1" /><polygon clip-path="url(#border_clip)" fill="#e2eb30" fill-rule="evenodd" points="-9.5,-9.5 1000.5,-9.5 1000.5,1000.5 -9.499999999999943,1000.5000000000001 -9.500000000000114,-9.499999999999886" stroke-width="0" /><polyline clip-path="url(#border_clip)" fill="none" points="-9.5,-9.5 1000.5,-9.5 1000.5,1000.5 -9.499999999999943,1000.5000000000001 -9.500000000000114,-9.499999999999886" stroke="black" stroke-linecap="round" stroke-width="1" /><polygon clip-path="url(#border_clip)" fill="#bf9d87" fill-rule="evenodd" points="481.3992036599512,26.97724293186849 486.3187835467879,-66.89393333506143 565.1538169336578,-15.697864043648906 481.39920365995124,26.977242931868545" stroke-width="0" /><polygon clip-path="url(#border_clip)" fill="#e65298" fill-rule="evenodd" points="529.7645917108518,411.2162473733692 543.8487385944286,437.70467515913697 513.8670137838557,436.65769025806196 529.7645917108518,411.2162473733692" stroke-width="0" /><polygon clip-path="url(#border_clip)" fill="#3b0ad9" fill-rule="evenodd" points="755.6142690253052,910.1065645511306 806.82427218194,919.136269789811 773.39931647824,958.9705808319978 755.6142690253052,910.1065645511306" stroke-width="0" /><polygon clip-path="url(#border_clip)" fill="#a2269b" fill-rule="evenodd" points="18.390698245415138,794.9003405358688 151.8639019960188,738.244326904924 134.19284720227273,882.1635188929156 18.390698245415194,794.900340535869" stroke-width="0" /><polygon clip-path="url(#border_clip)" fill="#7d5e0f" fill-rule="evenodd" points="979.6411158790534,99.07871109660607 1046.08102754245,-11.49587069396648 1108.6214685542277,101.33007152701526 979.6411158790534,99.07871109660607" stroke-width="0" /><polygon clip-path="url(#border_clip)" fill="#4db061" fill-rule="evenodd" points="934.0636976689609,468.9960175240328 849.6899669033833,434.90681752318517 921.3989454815948,378.88162326855 934.063697668961,468.99601752403277" stroke-width="0" /><polygon clip-path="url(#border_clip)" fill="#7fc6be" fill-rule="evenodd" points="655.1262245511292,400.84767485364523 662.8189571113861,364.6562136264944 690.3153156540498,389.414046061772 655.1262245511292,400.8476748536452" stroke-width="0" /><polygon clip-path="url(#border_clip)" fill="#06687d" fill-rule="evenodd" points="697.3666700936824,324.0679545061173 694.574710357482,244.11668834458982 765.2105177861962,281.67441336746066 697.3666700936825,324.06795450611736" stroke-width="0" /><polygon clip-path="url(#border_clip)" fill="#1ba8b4" fill-rule="evenodd" points="127.28729425984659,347.972032635803 146.28079558574717,298.49227003145126 179.63477631138875,339.68100598867045 127.28729425984659,347.972032635803" stroke-width="0" /><polygon clip-path="url(#border_clip)" fill="#fd9bd7" fill-rule="evenodd" points="519.7254909483788,257.5299168224029 521.627803250042,148.54651805035655 615.0590390265723,204.68566821555174 519.7254909483788,257.529916822403" stroke-width="0" /><polygon clip-path="url(#border_clip)" fill="#0c01c2" fill-rule="evenodd" points="69.76449559681168,945.203483851818 -4.424201395836008,1063.930217313718 -70.15022018586137,940.3175543134689 69.76449559681168,945.203483851818" stroke-width="0" /><polygon clip-path="url(#border_clip)" fill="#244730" fill-rule="evenodd" points="321.8151430971868,944.8364565000932 329.62786815652964,1056.5636301291931 228.96293497102283,1007.4660616888174 321.81514309718676,944.8364565000932" stroke-width="0" /><polygon clip-path="url(#border_clip)" fill="#c1ff5f" fill-rule="evenodd" points="39.54637450848816,981.6854757773657 148.66557538532658,918.6854757773649 148.6655753853277,1044.6854757773644 39.54637450848816,981.6854757773658" stroke-width="0" /><polygon clip-path="url(#border_clip)" fill="#2ec635" fill-rule="evenodd" points="599.4106634320415,534.579503358311 626.4391832383488,407.42031526291623 723.0480105504107,494.40729408956656 599.4106634320416,534.579503358311" stroke-width="0" /><polygon clip-path="url(#border_clip)" fill="#5df78e" fill-rule="evenodd" points="156.74743446169174,93.34198050940608 237.73787839049294,106.16960664270408 186.13360632440714,169.89557548217607 156.74743446169174,93.34198050940608" stroke-width="0" /><polygon clip-path="url(#border_clip)" fill="#fb7cb2" fill-rule="evenodd" points="604.7111093047472,973.024053695246 582.3270948457613,988.1222620889564 580.4436700546696,961.1880327319412 604.7111093047472,973.024053695246" stroke-width="0" /><polygon clip-path="url(#border_clip)" fill="#e0bc05" fill-rule="evenodd" points="991.1035230201405,110.59824435526673 976.1925660792816,159.36978690938156 941.4106497160939,122.07074812680446 991.1035230201405,110.59824435526673" stroke-width="0" /><polygon clip-path="url(#border_clip)" fill="#df0245" fill-rule="evenodd" points="547.5565771240588,121.88162232110216 551.462939653729,66.01803550655217 597.8890437168116,97.33283810091325 547.5565771240588,121.88162232110216" stroke-width="0" /><polygon clip-path="url(#border_clip)" fill="#15914e" fill-rule="evenodd" points="783.4595406642718,630.3544271747123 664.1255333747476,604.9892008949474 745.7594673505266,514.3255321867045 783.4595406642718,630.3544271747123" stroke-width="0" /><polygon clip-path="url(#border_clip)" fill="#cda3a4" fill-rule="evenodd" points="607.2104606057654,788.8773174876237 603.0225210014635,668.9504182453327 708.9762321445352,725.2870057796379 607.2104606057654,788.8773174876237" stroke-width="0" /><polygon clip-path="url(#border_clip)" fill="#dd0569" fill-rule="evenodd" points="997.5272382903936,723.9555391973419 1077.976145468503,798.9753588042151 972.7826223125703,831.1362463237176 997.5272382903936,723.9555391973417" stroke-width="0" /><polygon clip-path="url(#border_clip)" fill="#8850bb" fill-rule="evenodd" points="306.30167673798235,408.6036086762699 294.5586257650964,391.19381965261437 315.5074708205526,389.72893370398737 306.30167673798235,408.6036086762699" stroke-width="0" /><polygon clip-path="url(#border_clip)" fill="#3d634d" fill-rule="evenodd" points="848.2415684394599,413.89601117175107 885.4687894181013,340.83347618830464 930.1291902893345,409.60446275982827 848.2415684394599,413.89601117175107" stroke-width="0" /><polygon clip-path="url(#border_clip)" fill="#0e5125" fill-rule="evenodd" points="630.2737331977215,383.96538898918936 595.5919811539862,513.3994497119245 500.83967247498765,418.64714103292926 630.2737331977215,383.96538898918936" stroke-width="0" /><polygon clip-path="url(#border_clip)" fill="#e69f42" fill-rule="evenodd" points="178.94041697117575,532.5518203629607 125.8975082096996,641.3058999651603 58.23516688973774,540.992353686002 178.9404169711757,532.5518203629607" stroke-width="0" /><polygon clip-path="url(#border_clip)" fill="#4cd697" fill-rule="evenodd" points="961.9338473628407,373.295878091317 970.0424033047325,335.1481216626986 999.0250514983512,361.2442153106934 961.9338473628407,373.295878091317" stroke-width="0" /><polygon clip-path="url(#border_clip)" fill="#35057d" fill-rule="evenodd" points="416.3314889374107,895.4727022057025 303.05185218972986,945.9080459471037 316.0133816349163,822.5873309214383 416.3314889374107,895.4727022057025" stroke-width="0" /><polyline clip-path="url(#border_clip)" fill="none" points="639.3186057558135,866.2242042578439 639.3186057558135,866.2242042578439" stroke="#09541a" stroke-linecap="round" stroke-width="52" /><polyline clip-path="url(#border_clip)" fill="none" points="823.7128758397748,647.8007564042689 823.7128758397748,647.8007564042689" stroke="#6c5dc7" stroke-linecap="round" stroke-width="9" /><polyline clip-path="url(#border_clip)" fill="none" points="785.3653871561808,188.400854266022 785.3653871561808,188.400854266022" stroke="#d738dc" stroke-linecap="round" stroke-width="37" /><polyline clip-path="url(#border_clip)" fill="none" points="248.88240745993167,107.26158700621608 248.88240745993167,107.26158700621608" stroke="#3d48bf" stroke-linecap="round" stroke-width="16" /><polyline clip-path="url(#border_clip)" fill="none" points="498.2207983294493,47.520561089485625 498.2207983294493,47.520561089485625" stroke="#be6ba0" stroke-linecap="round" stroke-width="71" /><polyline clip-path="url(#border_clip)" fill="none" points="683.6778099435116,679.4964161192003 683.6778099435116,679.4964161192003" stroke="#489b7e" stroke-linecap="round" stroke-width="35" /><polyline clip-path="url(#border_clip)" fill="none" points="801.3815184505349,867.2628835793447 801.3815184505349,867.2628835793447" stroke="#d69d50" stroke-linecap="round" stroke-width="11" /><polyline clip-path="url(#border_clip)" fill="none" points="849.4901225724577,26.25809399585569 849.4901225724577,26.25809399585569" stroke="#a0a439" stroke-linecap="round" stroke-width="58" /><polyline clip-path="url(#border_clip)" fill="none" points="943.4205105212927,204.62414460951925 943.4205105212927,204.62414460951925" stroke="#8c1a91" stroke-linecap="round" stroke-width="23" /><polyline clip-path="url(#border_clip)" fill="none" points="954.0568093640595,700.6035874907852 954.0568093640595,700.6035874907852" stroke="#52e6d4" stroke-linecap="round" stroke-width="20" /><polyline clip-path="url(#border_clip)" fill="none" points="880.3995032982572,428.7853479548722 880.3995032982572,428.7853479548722" stroke="#1e2638" stroke-linecap="round" stroke-width="18" /><polyline clip-path="url(#border_clip)" fill="none" points="408.3991547432119,888.799924448522 408.3991547432119,888.799924448522" stroke="#986543" stroke-linecap="round" stroke-width="61" /><polyline clip-path="url(#border_clip)" fill="none" points="374.53811490949704,204.68699934938854 374.53811490949704,204.68699934938854" stroke="#975be6" stroke-linecap="round" stroke-width="61" /><polyline clip-path="url(#border_clip)" fill="none" points="200.7612051266267,519.1142569324235 200.7612051266267,519.1142569324235" stroke="#76c921" stroke-linecap="round" stroke-width="30" /><polyline clip-path="url(#border_clip)" fill="none" points="260.24820151268466,766.9630184755638 260.24820151268466,766.9630184755638" stroke="#80f24e" stroke-linecap="round" stroke-width="8" /><polyline clip-path="url(#border_clip)" fill="none" points="603.3173566519436,855.8023261231468 603.3173566519436,855.8023261231468" stroke="#24201b" stroke-linecap="round" stroke-width="6" /><polyline clip-path="url(#border_clip)" fill="none" points="897.074727087033,72.80984396291132 897.074727087033,72.80984396291132" stroke="#59d0f1" stroke-linecap="round" stroke-width="73" /><polyline clip-path="url(#border_clip)" fill="none" points="381.2892860821478,867.9795492730539 381.2892860821478,867.9795492730539" stroke="#e610d2" stroke-linecap="round" stroke-width="22" /><polyline clip-path="url(#border_clip)" fill="none" points="25.02096849244367,833.9678574040042 25.02096849244367,833.9678574040042" stroke="#3a1031" stroke-linecap="round" stroke-width="5" /><polyline clip-path="url(#border_clip)" fill="none" points="431.12012760799416,489.64591821691187 431.12012760799416,489.64591821691187" stroke="#c9e98f" stroke-linecap="round" stroke-width="48" /><polyline clip-path="url(#border_clip)" fill="none" points="914.0794021865117,358.9110646957036 914.0794021865117,358.9110646957036" stroke="#eebc44" stroke-linecap="round" stroke-width="51" /><polyline clip-path="url(#border_clip)" fill="none" points="325.47183737649306,4.526875171681638 325.47183737649306,4.526875171681638" stroke="#587508" stroke-linecap="round" stroke-width="63" /><polyline clip-path="url(#border_clip)" fill="none" points="183.74296621822344,148.97277794095248 183.74296621822344,148.97277794095248" stroke="#5acd8d" stroke-linecap="round" stroke-width="17" /><polyline clip-path="url(#border_clip)" fill="none" points="796.1341828635477,632.9611938698181 796.1341828635477,632.9611938698181" stroke="#199d8c" stroke-linecap="round" stroke-width="41" /><polyline clip-path="url(#border_clip)" fill="none" points="197.226703049552,800.8508639750071 197.226703049552,800.8508639750071" stroke="#ab2113" stroke-linecap="round" stroke-width="58" /><polyline clip-path="url(#border_clip)" fill="none" points="151.80102936290803,371.5679688037869 151.80102936290803,371.5679688037869" stroke="#a4c6a5" stroke-linecap="round" stroke-width="7" /><polyline clip-path="url(#border_clip)" fill="none" points="900.1907420728737,535.3672198512438 900.1907420728737,535.3672198512438" stroke="#4efa8f" stroke-linecap="round" stroke-width="21" /></svg>