<svg width="556" height="251" viewBox="0 0 556 251" fill="none" xmlns="http://www.w3.org/2000/svg">
<path d="M556 0H3.05176e-05V251H264C522 251 556 0 556 0Z" fill="url(#paint0_linear_1_4)"/>
<path d="M36.5284 75V45.9091H55.7898V50.9801H42.679V57.9119H54.5114V62.983H42.679V75H36.5284ZM77.8956 45.9091H84.0462V64.8011C84.0462 66.9223 83.5395 68.7784 82.5263 70.3693C81.5225 71.9602 80.1162 73.2008 78.3075 74.0909C76.4988 74.9716 74.3918 75.4119 71.9865 75.4119C69.5717 75.4119 67.46 74.9716 65.6513 74.0909C63.8426 73.2008 62.4363 71.9602 61.4325 70.3693C60.4287 68.7784 59.9268 66.9223 59.9268 64.8011V45.9091H66.0774V64.2756C66.0774 65.3835 66.3189 66.3684 66.8018 67.2301C67.2943 68.0919 67.9856 68.7689 68.8757 69.2614C69.7659 69.7538 70.8028 70 71.9865 70C73.1797 70 74.2166 69.7538 75.0973 69.2614C75.9875 68.7689 76.674 68.0919 77.157 67.2301C77.6494 66.3684 77.8956 65.3835 77.8956 64.2756V45.9091ZM114.774 56.0938H108.553C108.439 55.2888 108.207 54.5739 107.857 53.9489C107.506 53.3144 107.056 52.7746 106.507 52.3295C105.958 51.8845 105.323 51.5436 104.604 51.3068C103.893 51.0701 103.122 50.9517 102.288 50.9517C100.783 50.9517 99.4711 51.3258 98.3537 52.0739C97.2363 52.8125 96.3698 53.892 95.7543 55.3125C95.1387 56.7235 94.831 58.4375 94.831 60.4545C94.831 62.5284 95.1387 64.2708 95.7543 65.6818C96.3793 67.0928 97.2505 68.1581 98.3679 68.8778C99.4853 69.5975 100.778 69.9574 102.246 69.9574C103.07 69.9574 103.832 69.8485 104.533 69.6307C105.243 69.4129 105.873 69.0956 106.422 68.679C106.971 68.2528 107.426 67.7367 107.786 67.1307C108.155 66.5246 108.411 65.8333 108.553 65.0568L114.774 65.0852C114.613 66.4205 114.211 67.7083 113.567 68.9489C112.932 70.1799 112.075 71.2831 110.996 72.2585C109.926 73.2244 108.647 73.9915 107.161 74.5597C105.683 75.1184 104.012 75.3977 102.146 75.3977C99.5516 75.3977 97.2315 74.8106 95.1861 73.6364C93.1501 72.4621 91.5402 70.7623 90.3565 68.5369C89.1823 66.3116 88.5952 63.6174 88.5952 60.4545C88.5952 57.2822 89.1918 54.5833 90.3849 52.358C91.5781 50.1326 93.1974 48.4375 95.2429 47.2727C97.2884 46.0985 99.5895 45.5114 102.146 45.5114C103.832 45.5114 105.394 45.7481 106.834 46.2216C108.283 46.6951 109.566 47.3864 110.683 48.2955C111.801 49.1951 112.71 50.2983 113.411 51.6051C114.121 52.9119 114.575 54.4081 114.774 56.0938ZM119.185 75V45.9091H125.335V58.7358H125.719L136.188 45.9091H143.56L132.764 58.9347L143.688 75H136.33L128.361 63.0398L125.335 66.733V75H119.185ZM162.171 45.9091V75H156.021V45.9091H162.171ZM166.124 50.9801V45.9091H190.016V50.9801H181.109V75H175.03V50.9801H166.124ZM42.679 99.9091V129H36.5284V99.9091H42.679ZM67.3097 129H56.9972V99.9091H67.3949C70.321 99.9091 72.84 100.491 74.9517 101.656C77.0634 102.812 78.6875 104.473 79.8239 106.642C80.9697 108.811 81.5426 111.405 81.5426 114.426C81.5426 117.456 80.9697 120.061 79.8239 122.239C78.6875 124.417 77.054 126.088 74.9233 127.253C72.8021 128.418 70.2642 129 67.3097 129ZM63.1477 123.73H67.054C68.8722 123.73 70.4015 123.408 71.642 122.764C72.892 122.111 73.8295 121.102 74.4545 119.739C75.089 118.366 75.4062 116.595 75.4062 114.426C75.4062 112.277 75.089 110.52 74.4545 109.156C73.8295 107.793 72.8968 106.789 71.6562 106.145C70.4157 105.501 68.8864 105.179 67.0682 105.179H63.1477V123.73ZM112.832 114.455C112.832 117.627 112.23 120.326 111.028 122.551C109.835 124.777 108.206 126.476 106.141 127.651C104.086 128.815 101.776 129.398 99.2095 129.398C96.6243 129.398 94.3042 128.811 92.2493 127.636C90.1944 126.462 88.5703 124.762 87.3771 122.537C86.1839 120.312 85.5874 117.617 85.5874 114.455C85.5874 111.282 86.1839 108.583 87.3771 106.358C88.5703 104.133 90.1944 102.437 92.2493 101.273C94.3042 100.098 96.6243 99.5114 99.2095 99.5114C101.776 99.5114 104.086 100.098 106.141 101.273C108.206 102.437 109.835 104.133 111.028 106.358C112.23 108.583 112.832 111.282 112.832 114.455ZM106.596 114.455C106.596 112.4 106.288 110.667 105.673 109.256C105.067 107.845 104.21 106.775 103.102 106.045C101.994 105.316 100.696 104.952 99.2095 104.952C97.7228 104.952 96.4254 105.316 95.3175 106.045C94.2095 106.775 93.3478 107.845 92.7322 109.256C92.1262 110.667 91.8232 112.4 91.8232 114.455C91.8232 116.509 92.1262 118.242 92.7322 119.653C93.3478 121.064 94.2095 122.134 95.3175 122.864C96.4254 123.593 97.7228 123.957 99.2095 123.957C100.696 123.957 101.994 123.593 103.102 122.864C104.21 122.134 105.067 121.064 105.673 119.653C106.288 118.242 106.596 116.509 106.596 114.455ZM141.72 99.9091V129H136.408L123.751 110.69H123.538V129H117.388V99.9091H122.786L135.342 118.205H135.598V99.9091H141.72ZM145.694 104.98V99.9091H169.586V104.98H160.68V129H154.6V104.98H145.694ZM208.446 110.094H202.224C202.111 109.289 201.879 108.574 201.528 107.949C201.178 107.314 200.728 106.775 200.179 106.33C199.63 105.884 198.995 105.544 198.276 105.307C197.565 105.07 196.794 104.952 195.96 104.952C194.455 104.952 193.143 105.326 192.026 106.074C190.908 106.812 190.042 107.892 189.426 109.312C188.811 110.723 188.503 112.437 188.503 114.455C188.503 116.528 188.811 118.271 189.426 119.682C190.051 121.093 190.922 122.158 192.04 122.878C193.157 123.598 194.45 123.957 195.918 123.957C196.741 123.957 197.504 123.848 198.205 123.631C198.915 123.413 199.545 123.096 200.094 122.679C200.643 122.253 201.098 121.737 201.457 121.131C201.827 120.525 202.082 119.833 202.224 119.057L208.446 119.085C208.285 120.42 207.883 121.708 207.239 122.949C206.604 124.18 205.747 125.283 204.668 126.259C203.598 127.224 202.319 127.991 200.832 128.56C199.355 129.118 197.684 129.398 195.818 129.398C193.223 129.398 190.903 128.811 188.858 127.636C186.822 126.462 185.212 124.762 184.028 122.537C182.854 120.312 182.267 117.617 182.267 114.455C182.267 111.282 182.864 108.583 184.057 106.358C185.25 104.133 186.869 102.437 188.915 101.273C190.96 100.098 193.261 99.5114 195.818 99.5114C197.504 99.5114 199.066 99.7481 200.506 100.222C201.955 100.695 203.238 101.386 204.355 102.295C205.473 103.195 206.382 104.298 207.082 105.605C207.793 106.912 208.247 108.408 208.446 110.094ZM217.324 129H210.733L220.776 99.9091H228.702L238.73 129H232.139L224.852 106.557H224.625L217.324 129ZM216.912 117.565H232.48V122.366H216.912V117.565ZM242.232 129V99.9091H253.709C255.906 99.9091 257.781 100.302 259.334 101.088C260.896 101.865 262.085 102.968 262.899 104.398C263.723 105.818 264.135 107.49 264.135 109.412C264.135 111.344 263.718 113.006 262.885 114.398C262.052 115.78 260.844 116.841 259.263 117.58C257.691 118.318 255.787 118.688 253.553 118.688H245.868V113.744H252.558C253.732 113.744 254.708 113.583 255.484 113.261C256.261 112.939 256.839 112.456 257.217 111.812C257.606 111.169 257.8 110.368 257.8 109.412C257.8 108.446 257.606 107.632 257.217 106.969C256.839 106.306 256.256 105.804 255.47 105.463C254.694 105.113 253.714 104.938 252.53 104.938H248.382V129H242.232ZM257.942 115.761L265.172 129H258.382L251.308 115.761H257.942ZM268.482 129V99.9091H288.084V104.98H274.632V111.912H287.075V116.983H274.632V123.929H288.141V129H268.482ZM42.679 153.909V183H36.5284V153.909H42.679ZM56.9972 183V153.909H63.1477V177.929H75.6193V183H56.9972ZM105.293 168.455C105.293 171.627 104.691 174.326 103.489 176.551C102.295 178.777 100.667 180.476 98.6023 181.651C96.5473 182.815 94.2367 183.398 91.6705 183.398C89.0852 183.398 86.7652 182.811 84.7102 181.636C82.6553 180.462 81.0313 178.762 79.8381 176.537C78.6449 174.312 78.0483 171.617 78.0483 168.455C78.0483 165.282 78.6449 162.583 79.8381 160.358C81.0313 158.133 82.6553 156.437 84.7102 155.273C86.7652 154.098 89.0852 153.511 91.6705 153.511C94.2367 153.511 96.5473 154.098 98.6023 155.273C100.667 156.437 102.295 158.133 103.489 160.358C104.691 162.583 105.293 165.282 105.293 168.455ZM99.0568 168.455C99.0568 166.4 98.7491 164.667 98.1335 163.256C97.5275 161.845 96.6705 160.775 95.5625 160.045C94.4545 159.316 93.1572 158.952 91.6705 158.952C90.1837 158.952 88.8864 159.316 87.7784 160.045C86.6705 160.775 85.8087 161.845 85.1932 163.256C84.5871 164.667 84.2841 166.4 84.2841 168.455C84.2841 170.509 84.5871 172.242 85.1932 173.653C85.8087 175.064 86.6705 176.134 87.7784 176.864C88.8864 177.593 90.1837 177.957 91.6705 177.957C93.1572 177.957 94.4545 177.593 95.5625 176.864C96.6705 176.134 97.5275 175.064 98.1335 173.653C98.7491 172.242 99.0568 170.509 99.0568 168.455ZM113.464 153.909L120.495 176.011H120.765L127.81 153.909H134.629L124.6 183H116.674L106.631 153.909H113.464ZM138.13 183V153.909H157.732V158.98H144.281V165.912H156.724V170.983H144.281V177.929H157.789V183H138.13ZM178.031 153.909V183H171.88V153.909H178.031ZM181.983 158.98V153.909H205.875V158.98H196.969V183H190.889V158.98H181.983Z" fill="white"/>
<defs>
<linearGradient id="paint0_linear_1_4" x1="278" y1="0" x2="278" y2="251" gradientUnits="userSpaceOnUse">
<stop stop-color="#0F74D9"/>
<stop offset="1" stop-color="#6EA1D3"/>
</linearGradient>
</defs>
</svg>
